STARTFONT 2.1
FONT -Patrick J. Thomas-mono_size_07_05_design_1_pixel-Normal-R-Normal--10-100-72-72-P-0--
SIZE 10 72 72
FONTBOUNDINGBOX 9 9 0 -2
STARTPROPERTIES 22
FAMILY_NAME "mono_size_07_05_design_1_pixel"
DEFAULT_CHAR -1
FOUNDRY "Patrick J. Thomas"
CODEPAGE "MS Windows 1252 Western (ANSI)"
ENC_MODE 2
CREATION_YEAR 2026
WEIGHT_NAME "Normal"
SLANT "R"
SETWIDTH_NAME "Normal"
SPACING "P"
WEIGHT 400
HI_VERSION 1
FONTNAME_REGISTRY "-"
BREAK_CHAR 32
PIXEL_SIZE 10
POINT_SIZE 100
FONT_ASCENT 8
FONT_DESCENT 2
RESOLUTION_X 72
RESOLUTION_Y 72
X_HEIGHT 5
CAP_HEIGHT 8
ENDPROPERTIES
CHARS 150
STARTCHAR .uni0020
ENCODING 32
SWIDTH 600 0
DWIDTH 6 0
BBX 0 0 0 0
BITMAP
ENDCHAR
STARTCHAR .uni0021
ENCODING 33
SWIDTH 600 0
DWIDTH 6 0
BBX 1 7 2 0
BITMAP
8000
8000
8000
8000
8000
0000
8000
ENDCHAR
STARTCHAR .uni0022
ENCODING 34
SWIDTH 600 0
DWIDTH 6 0
BBX 3 3 1 4
BITMAP
A000
A000
A000
ENDCHAR
STARTCHAR .uni0023
ENCODING 35
SWIDTH 600 0
DWIDTH 6 0
BBX 5 5 0 1
BITMAP
5000
F800
5000
F800
5000
ENDCHAR
STARTCHAR .uni0024
ENCODING 36
SWIDTH 600 0
DWIDTH 6 0
BBX 5 8 0 -1
BITMAP
2000
7000
A000
F000
2800
A800
7000
2000
ENDCHAR
STARTCHAR .uni0025
ENCODING 37
SWIDTH 600 0
DWIDTH 6 0
BBX 5 5 0 1
BITMAP
8800
1000
2000
4000
8800
ENDCHAR
STARTCHAR .uni0026
ENCODING 38
SWIDTH 600 0
DWIDTH 6 0
BBX 5 7 0 0
BITMAP
6000
9000
8000
4000
A800
9000
6800
ENDCHAR
STARTCHAR .uni0027
ENCODING 39
SWIDTH 600 0
DWIDTH 6 0
BBX 1 3 2 4
BITMAP
8000
8000
8000
ENDCHAR
STARTCHAR .uni0028
ENCODING 40
SWIDTH 600 0
DWIDTH 6 0
BBX 3 9 1 -2
BITMAP
2000
4000
8000
8000
8000
8000
8000
4000
2000
ENDCHAR
STARTCHAR .uni0029
ENCODING 41
SWIDTH 600 0
DWIDTH 6 0
BBX 3 9 1 -2
BITMAP
8000
4000
2000
2000
2000
2000
2000
4000
8000
ENDCHAR
STARTCHAR .uni002A
ENCODING 42
SWIDTH 600 0
DWIDTH 6 0
BBX 5 5 0 1
BITMAP
2000
A800
7000
A800
2000
ENDCHAR
STARTCHAR .uni002B
ENCODING 43
SWIDTH 600 0
DWIDTH 6 0
BBX 5 5 0 1
BITMAP
2000
2000
F800
2000
2000
ENDCHAR
STARTCHAR .uni002C
ENCODING 44
SWIDTH 600 0
DWIDTH 6 0
BBX 3 3 1 -2
BITMAP
2000
4000
8000
ENDCHAR
STARTCHAR .uni002D
ENCODING 45
SWIDTH 600 0
DWIDTH 6 0
BBX 5 1 0 3
BITMAP
F800
ENDCHAR
STARTCHAR .uni002E
ENCODING 46
SWIDTH 600 0
DWIDTH 6 0
BBX 1 1 2 0
BITMAP
8000
ENDCHAR
STARTCHAR .uni002F
ENCODING 47
SWIDTH 600 0
DWIDTH 6 0
BBX 5 5 0 1
BITMAP
0800
1000
2000
4000
8000
ENDCHAR
STARTCHAR .uni0030
ENCODING 48
SWIDTH 600 0
DWIDTH 6 0
BBX 5 7 0 0
BITMAP
7000
8800
9800
A800
C800
8800
7000
ENDCHAR
STARTCHAR .uni0031
ENCODING 49
SWIDTH 600 0
DWIDTH 6 0
BBX 3 7 1 0
BITMAP
2000
6000
A000
2000
2000
2000
2000
ENDCHAR
STARTCHAR .uni0032
ENCODING 50
SWIDTH 600 0
DWIDTH 6 0
BBX 5 7 0 0
BITMAP
7000
8800
0800
1000
2000
4000
F800
ENDCHAR
STARTCHAR .uni0033
ENCODING 51
SWIDTH 600 0
DWIDTH 6 0
BBX 5 7 0 0
BITMAP
7000
8800
0800
3000
0800
8800
7000
ENDCHAR
STARTCHAR .uni0034
ENCODING 52
SWIDTH 600 0
DWIDTH 6 0
BBX 5 7 0 0
BITMAP
1000
3000
5000
F800
1000
1000
1000
ENDCHAR
STARTCHAR .uni0035
ENCODING 53
SWIDTH 600 0
DWIDTH 6 0
BBX 5 7 0 0
BITMAP
F800
8000
8000
F000
0800
8800
7000
ENDCHAR
STARTCHAR .uni0036
ENCODING 54
SWIDTH 600 0
DWIDTH 6 0
BBX 5 7 0 0
BITMAP
7000
8800
8000
F000
8800
8800
7000
ENDCHAR
STARTCHAR .uni0037
ENCODING 55
SWIDTH 600 0
DWIDTH 6 0
BBX 5 7 0 0
BITMAP
F800
0800
0800
1000
2000
2000
2000
ENDCHAR
STARTCHAR .uni0038
ENCODING 56
SWIDTH 600 0
DWIDTH 6 0
BBX 5 7 0 0
BITMAP
7000
8800
8800
7000
8800
8800
7000
ENDCHAR
STARTCHAR .uni0039
ENCODING 57
SWIDTH 600 0
DWIDTH 6 0
BBX 5 7 0 0
BITMAP
7000
8800
8800
7800
0800
8800
7000
ENDCHAR
STARTCHAR .uni003A
ENCODING 58
SWIDTH 600 0
DWIDTH 6 0
BBX 1 6 2 0
BITMAP
8000
0000
0000
0000
0000
8000
ENDCHAR
STARTCHAR .uni003B
ENCODING 59
SWIDTH 600 0
DWIDTH 6 0
BBX 3 8 0 -2
BITMAP
2000
0000
0000
0000
0000
2000
4000
8000
ENDCHAR
STARTCHAR .uni003C
ENCODING 60
SWIDTH 600 0
DWIDTH 6 0
BBX 3 5 1 1
BITMAP
2000
4000
8000
4000
2000
ENDCHAR
STARTCHAR .uni003D
ENCODING 61
SWIDTH 600 0
DWIDTH 6 0
BBX 5 3 0 2
BITMAP
F800
0000
F800
ENDCHAR
STARTCHAR .uni003E
ENCODING 62
SWIDTH 600 0
DWIDTH 6 0
BBX 3 5 1 1
BITMAP
8000
4000
2000
4000
8000
ENDCHAR
STARTCHAR .uni003F
ENCODING 63
SWIDTH 600 0
DWIDTH 6 0
BBX 5 7 0 0
BITMAP
7000
8800
0800
1000
2000
0000
2000
ENDCHAR
STARTCHAR .uni0040
ENCODING 64
SWIDTH 600 0
DWIDTH 6 0
BBX 5 7 0 0
BITMAP
7000
8800
B800
A800
B800
8000
7800
ENDCHAR
STARTCHAR .uni0041
ENCODING 65
SWIDTH 600 0
DWIDTH 6 0
BBX 5 7 0 0
BITMAP
7000
8800
8800
F800
8800
8800
8800
ENDCHAR
STARTCHAR .uni0042
ENCODING 66
SWIDTH 600 0
DWIDTH 6 0
BBX 5 7 0 0
BITMAP
F000
8800
8800
F000
8800
8800
F000
ENDCHAR
STARTCHAR .uni0043
ENCODING 67
SWIDTH 600 0
DWIDTH 6 0
BBX 5 7 0 0
BITMAP
7000
8800
8000
8000
8000
8800
7000
ENDCHAR
STARTCHAR .uni0044
ENCODING 68
SWIDTH 600 0
DWIDTH 6 0
BBX 5 7 0 0
BITMAP
F000
8800
8800
8800
8800
8800
F000
ENDCHAR
STARTCHAR .uni0045
ENCODING 69
SWIDTH 600 0
DWIDTH 6 0
BBX 5 7 0 0
BITMAP
F800
8000
8000
F000
8000
8000
F800
ENDCHAR
STARTCHAR .uni0046
ENCODING 70
SWIDTH 600 0
DWIDTH 6 0
BBX 5 7 0 0
BITMAP
F800
8000
8000
F000
8000
8000
8000
ENDCHAR
STARTCHAR .uni0047
ENCODING 71
SWIDTH 600 0
DWIDTH 6 0
BBX 5 7 0 0
BITMAP
7000
8800
8000
9800
8800
8800
7000
ENDCHAR
STARTCHAR .uni0048
ENCODING 72
SWIDTH 600 0
DWIDTH 6 0
BBX 5 7 0 0
BITMAP
8800
8800
8800
F800
8800
8800
8800
ENDCHAR
STARTCHAR .uni0049
ENCODING 73
SWIDTH 600 0
DWIDTH 6 0
BBX 5 7 0 0
BITMAP
F800
2000
2000
2000
2000
2000
F800
ENDCHAR
STARTCHAR .uni004A
ENCODING 74
SWIDTH 600 0
DWIDTH 6 0
BBX 5 7 0 0
BITMAP
0800
0800
0800
0800
8800
8800
7000
ENDCHAR
STARTCHAR .uni004B
ENCODING 75
SWIDTH 600 0
DWIDTH 6 0
BBX 5 7 0 0
BITMAP
8800
9000
A000
C000
A000
9000
8800
ENDCHAR
STARTCHAR .uni004C
ENCODING 76
SWIDTH 600 0
DWIDTH 6 0
BBX 5 7 0 0
BITMAP
8000
8000
8000
8000
8000
8000
F800
ENDCHAR
STARTCHAR .uni004D
ENCODING 77
SWIDTH 600 0
DWIDTH 6 0
BBX 5 7 0 0
BITMAP
8800
D800
A800
8800
8800
8800
8800
ENDCHAR
STARTCHAR .uni004E
ENCODING 78
SWIDTH 600 0
DWIDTH 6 0
BBX 5 7 0 0
BITMAP
8800
C800
A800
9800
8800
8800
8800
ENDCHAR
STARTCHAR .uni004F
ENCODING 79
SWIDTH 600 0
DWIDTH 6 0
BBX 5 7 0 0
BITMAP
7000
8800
8800
8800
8800
8800
7000
ENDCHAR
STARTCHAR .uni0050
ENCODING 80
SWIDTH 600 0
DWIDTH 6 0
BBX 5 7 0 0
BITMAP
F000
8800
8800
F000
8000
8000
8000
ENDCHAR
STARTCHAR .uni0051
ENCODING 81
SWIDTH 600 0
DWIDTH 6 0
BBX 5 9 0 -2
BITMAP
7000
8800
8800
8800
8800
8800
7000
0800
0800
ENDCHAR
STARTCHAR .uni0052
ENCODING 82
SWIDTH 600 0
DWIDTH 6 0
BBX 5 7 0 0
BITMAP
F000
8800
8800
F000
8800
8800
8800
ENDCHAR
STARTCHAR .uni0053
ENCODING 83
SWIDTH 600 0
DWIDTH 6 0
BBX 5 7 0 0
BITMAP
7000
8800
8000
7000
0800
8800
7000
ENDCHAR
STARTCHAR .uni0054
ENCODING 84
SWIDTH 600 0
DWIDTH 6 0
BBX 5 7 0 0
BITMAP
F800
2000
2000
2000
2000
2000
2000
ENDCHAR
STARTCHAR .uni0055
ENCODING 85
SWIDTH 600 0
DWIDTH 6 0
BBX 5 7 0 0
BITMAP
8800
8800
8800
8800
8800
8800
7000
ENDCHAR
STARTCHAR .uni0056
ENCODING 86
SWIDTH 600 0
DWIDTH 6 0
BBX 5 7 0 0
BITMAP
8800
8800
8800
8800
8800
5000
2000
ENDCHAR
STARTCHAR .uni0057
ENCODING 87
SWIDTH 600 0
DWIDTH 6 0
BBX 5 7 0 0
BITMAP
8800
8800
8800
8800
A800
D800
8800
ENDCHAR
STARTCHAR .uni0058
ENCODING 88
SWIDTH 600 0
DWIDTH 6 0
BBX 5 7 0 0
BITMAP
8800
8800
5000
2000
5000
8800
8800
ENDCHAR
STARTCHAR .uni0059
ENCODING 89
SWIDTH 600 0
DWIDTH 6 0
BBX 5 7 0 0
BITMAP
8800
8800
5000
2000
2000
2000
2000
ENDCHAR
STARTCHAR .uni005A
ENCODING 90
SWIDTH 600 0
DWIDTH 6 0
BBX 5 7 0 0
BITMAP
F800
0800
1000
2000
4000
8000
F800
ENDCHAR
STARTCHAR .uni005B
ENCODING 91
SWIDTH 600 0
DWIDTH 6 0
BBX 3 9 1 -2
BITMAP
E000
8000
8000
8000
8000
8000
8000
8000
E000
ENDCHAR
STARTCHAR .uni005C
ENCODING 92
SWIDTH 600 0
DWIDTH 6 0
BBX 5 5 0 1
BITMAP
8000
4000
2000
1000
0800
ENDCHAR
STARTCHAR .uni005D
ENCODING 93
SWIDTH 600 0
DWIDTH 6 0
BBX 3 9 1 -2
BITMAP
E000
2000
2000
2000
2000
2000
2000
2000
E000
ENDCHAR
STARTCHAR .uni005E
ENCODING 94
SWIDTH 600 0
DWIDTH 6 0
BBX 3 2 1 5
BITMAP
4000
A000
ENDCHAR
STARTCHAR .uni005F
ENCODING 95
SWIDTH 600 0
DWIDTH 6 0
BBX 5 1 0 0
BITMAP
F800
ENDCHAR
STARTCHAR .uni0060
ENCODING 96
SWIDTH 600 0
DWIDTH 6 0
BBX 3 3 1 4
BITMAP
8000
4000
2000
ENDCHAR
STARTCHAR .uni0061
ENCODING 97
SWIDTH 600 0
DWIDTH 6 0
BBX 5 5 0 0
BITMAP
7000
0800
7800
8800
7800
ENDCHAR
STARTCHAR .uni0062
ENCODING 98
SWIDTH 600 0
DWIDTH 6 0
BBX 5 7 0 0
BITMAP
8000
8000
F000
8800
8800
8800
F000
ENDCHAR
STARTCHAR .uni0063
ENCODING 99
SWIDTH 600 0
DWIDTH 6 0
BBX 5 5 0 0
BITMAP
7000
8800
8000
8800
7000
ENDCHAR
STARTCHAR .uni0064
ENCODING 100
SWIDTH 600 0
DWIDTH 6 0
BBX 5 7 0 0
BITMAP
0800
0800
7800
8800
8800
8800
7800
ENDCHAR
STARTCHAR .uni0065
ENCODING 101
SWIDTH 600 0
DWIDTH 6 0
BBX 5 5 0 0
BITMAP
7000
8800
F800
8000
7800
ENDCHAR
STARTCHAR .uni0066
ENCODING 102
SWIDTH 600 0
DWIDTH 6 0
BBX 5 7 0 0
BITMAP
3000
4800
E000
4000
4000
4000
4000
ENDCHAR
STARTCHAR .uni0067
ENCODING 103
SWIDTH 600 0
DWIDTH 6 0
BBX 5 7 0 -2
BITMAP
7000
8800
8800
8800
7800
0800
7000
ENDCHAR
STARTCHAR .uni0068
ENCODING 104
SWIDTH 600 0
DWIDTH 6 0
BBX 5 7 0 0
BITMAP
8000
8000
F000
8800
8800
8800
8800
ENDCHAR
STARTCHAR .uni0069
ENCODING 105
SWIDTH 600 0
DWIDTH 6 0
BBX 5 7 0 0
BITMAP
2000
0000
6000
2000
2000
2000
F800
ENDCHAR
STARTCHAR .uni006A
ENCODING 106
SWIDTH 600 0
DWIDTH 6 0
BBX 3 9 1 -2
BITMAP
2000
0000
6000
2000
2000
2000
2000
2000
C000
ENDCHAR
STARTCHAR .uni006B
ENCODING 107
SWIDTH 600 0
DWIDTH 6 0
BBX 4 7 0 0
BITMAP
8000
8000
9000
A000
C000
A000
9000
ENDCHAR
STARTCHAR .uni006C
ENCODING 108
SWIDTH 600 0
DWIDTH 6 0
BBX 5 7 0 0
BITMAP
6000
2000
2000
2000
2000
2000
F800
ENDCHAR
STARTCHAR .uni006D
ENCODING 109
SWIDTH 600 0
DWIDTH 6 0
BBX 5 5 0 0
BITMAP
5000
A800
A800
A800
A800
ENDCHAR
STARTCHAR .uni006E
ENCODING 110
SWIDTH 600 0
DWIDTH 6 0
BBX 5 5 0 0
BITMAP
F000
8800
8800
8800
8800
ENDCHAR
STARTCHAR .uni006F
ENCODING 111
SWIDTH 600 0
DWIDTH 6 0
BBX 5 5 0 0
BITMAP
7000
8800
8800
8800
7000
ENDCHAR
STARTCHAR .uni0070
ENCODING 112
SWIDTH 600 0
DWIDTH 6 0
BBX 5 7 0 -2
BITMAP
F000
8800
8800
8800
F000
8000
8000
ENDCHAR
STARTCHAR .uni0071
ENCODING 113
SWIDTH 600 0
DWIDTH 6 0
BBX 5 7 0 -2
BITMAP
7800
8800
8800
8800
7800
0800
0800
ENDCHAR
STARTCHAR .uni0072
ENCODING 114
SWIDTH 600 0
DWIDTH 6 0
BBX 5 5 0 0
BITMAP
F000
8800
8000
8000
8000
ENDCHAR
STARTCHAR .uni0073
ENCODING 115
SWIDTH 600 0
DWIDTH 6 0
BBX 5 5 0 0
BITMAP
7000
8000
7000
0800
F000
ENDCHAR
STARTCHAR .uni0074
ENCODING 116
SWIDTH 600 0
DWIDTH 6 0
BBX 5 7 0 0
BITMAP
2000
2000
F800
2000
2000
2000
2000
ENDCHAR
STARTCHAR .uni0075
ENCODING 117
SWIDTH 600 0
DWIDTH 6 0
BBX 5 5 0 0
BITMAP
8800
8800
8800
8800
7000
ENDCHAR
STARTCHAR .uni0076
ENCODING 118
SWIDTH 600 0
DWIDTH 6 0
BBX 5 5 0 0
BITMAP
8800
8800
8800
5000
2000
ENDCHAR
STARTCHAR .uni0077
ENCODING 119
SWIDTH 600 0
DWIDTH 6 0
BBX 5 5 0 0
BITMAP
A800
A800
A800
A800
5000
ENDCHAR
STARTCHAR .uni0078
ENCODING 120
SWIDTH 600 0
DWIDTH 6 0
BBX 5 5 0 0
BITMAP
8800
5000
2000
5000
8800
ENDCHAR
STARTCHAR .uni0079
ENCODING 121
SWIDTH 600 0
DWIDTH 6 0
BBX 5 7 0 -2
BITMAP
8800
8800
8800
8800
7800
0800
7000
ENDCHAR
STARTCHAR .uni007A
ENCODING 122
SWIDTH 600 0
DWIDTH 6 0
BBX 5 5 0 0
BITMAP
F800
1000
2000
4000
F800
ENDCHAR
STARTCHAR .uni007B
ENCODING 123
SWIDTH 600 0
DWIDTH 6 0
BBX 3 9 1 -2
BITMAP
2000
4000
4000
4000
8000
4000
4000
4000
2000
ENDCHAR
STARTCHAR .uni007C
ENCODING 124
SWIDTH 600 0
DWIDTH 6 0
BBX 1 9 2 -2
BITMAP
8000
8000
8000
8000
8000
8000
8000
8000
8000
ENDCHAR
STARTCHAR .uni007D
ENCODING 125
SWIDTH 600 0
DWIDTH 6 0
BBX 3 9 1 -2
BITMAP
8000
4000
4000
4000
2000
4000
4000
4000
8000
ENDCHAR
STARTCHAR .uni007E
ENCODING 126
SWIDTH 600 0
DWIDTH 6 0
BBX 5 3 0 4
BITMAP
4000
A800
1000
ENDCHAR
STARTCHAR .uni00AC
ENCODING 172
SWIDTH 600 0
DWIDTH 6 0
BBX 5 3 0 4
BITMAP
F800
0800
0800
ENDCHAR
STARTCHAR .uni00B7
ENCODING 183
SWIDTH 600 0
DWIDTH 6 0
BBX 1 1 2 3
BITMAP
8000
ENDCHAR
STARTCHAR .uni00D7
ENCODING 215
SWIDTH 600 0
DWIDTH 6 0
BBX 3 3 1 2
BITMAP
A000
4000
A000
ENDCHAR
STARTCHAR .uni0393
ENCODING 915
SWIDTH 600 0
DWIDTH 6 0
BBX 5 7 0 0
BITMAP
F800
8000
8000
8000
8000
8000
8000
ENDCHAR
STARTCHAR .uni0394
ENCODING 916
SWIDTH 1200 0
DWIDTH 12 0
BBX 7 7 2 0
BITMAP
1000
1000
2800
2800
4400
4400
FE00
ENDCHAR
STARTCHAR .uni039B
ENCODING 923
SWIDTH 1200 0
DWIDTH 12 0
BBX 7 7 2 0
BITMAP
1000
1000
2800
2800
4400
4400
C600
ENDCHAR
STARTCHAR .uni03A0
ENCODING 928
SWIDTH 600 0
DWIDTH 6 0
BBX 5 7 0 0
BITMAP
F800
8800
8800
8800
8800
8800
8800
ENDCHAR
STARTCHAR .uni03A3
ENCODING 931
SWIDTH 600 0
DWIDTH 6 0
BBX 5 7 0 0
BITMAP
F800
8000
4000
2000
4000
8000
F800
ENDCHAR
STARTCHAR .uni03B1
ENCODING 945
SWIDTH 600 0
DWIDTH 6 0
BBX 5 5 0 0
BITMAP
6800
9000
9000
9000
6800
ENDCHAR
STARTCHAR .uni03B2
ENCODING 946
SWIDTH 600 0
DWIDTH 6 0
BBX 5 9 0 -2
BITMAP
F000
8800
8800
F000
8800
8800
F000
8000
8000
ENDCHAR
STARTCHAR .uni03B3
ENCODING 947
SWIDTH 600 0
DWIDTH 6 0
BBX 5 7 0 -2
BITMAP
8800
8800
8800
5000
2000
4000
8000
ENDCHAR
STARTCHAR .uni03B4
ENCODING 948
SWIDTH 600 0
DWIDTH 6 0
BBX 5 7 0 0
BITMAP
7800
8000
7000
8800
8800
8800
7000
ENDCHAR
STARTCHAR .uni03B5
ENCODING 949
SWIDTH 600 0
DWIDTH 6 0
BBX 5 5 0 0
BITMAP
7800
8000
7800
8000
7800
ENDCHAR
STARTCHAR .uni03B8
ENCODING 952
SWIDTH 600 0
DWIDTH 6 0
BBX 5 7 0 0
BITMAP
7000
8800
8800
F800
8800
8800
7000
ENDCHAR
STARTCHAR .uni03BB
ENCODING 955
SWIDTH 600 0
DWIDTH 6 0
BBX 5 7 0 0
BITMAP
8000
8000
4000
2000
5000
8800
8800
ENDCHAR
STARTCHAR .uni03BC
ENCODING 956
SWIDTH 600 0
DWIDTH 6 0
BBX 5 7 0 -2
BITMAP
8800
8800
8800
8800
F000
8000
8000
ENDCHAR
STARTCHAR .uni03BD
ENCODING 957
SWIDTH 600 0
DWIDTH 6 0
BBX 5 5 0 0
BITMAP
8800
8800
8800
9000
E000
ENDCHAR
STARTCHAR .uni03C0
ENCODING 960
SWIDTH 600 0
DWIDTH 6 0
BBX 5 5 0 0
BITMAP
F800
5000
5000
5000
5000
ENDCHAR
STARTCHAR .uni03C3
ENCODING 963
SWIDTH 600 0
DWIDTH 6 0
BBX 5 5 0 0
BITMAP
7800
9000
9000
9000
6000
ENDCHAR
STARTCHAR .uni03C4
ENCODING 964
SWIDTH 600 0
DWIDTH 6 0
BBX 5 5 0 0
BITMAP
F800
2000
2000
2000
2000
ENDCHAR
STARTCHAR .uni03C6
ENCODING 966
SWIDTH 600 0
DWIDTH 6 0
BBX 5 7 0 0
BITMAP
1000
A800
A800
7000
2000
2000
2000
ENDCHAR
STARTCHAR .uni03C7
ENCODING 967
SWIDTH 600 0
DWIDTH 6 0
BBX 5 7 0 0
BITMAP
0800
8800
5000
2000
5000
8800
8000
ENDCHAR
STARTCHAR .uni03C8
ENCODING 968
SWIDTH 600 0
DWIDTH 6 0
BBX 5 7 0 0
BITMAP
A800
A800
A800
7000
2000
2000
2000
ENDCHAR
STARTCHAR .uni201C
ENCODING 8220
SWIDTH 600 0
DWIDTH 6 0
BBX 5 3 0 4
BITMAP
A000
5000
2800
ENDCHAR
STARTCHAR .uni201D
ENCODING 8221
SWIDTH 600 0
DWIDTH 6 0
BBX 5 3 0 4
BITMAP
2800
5000
A000
ENDCHAR
STARTCHAR .uni2102
ENCODING 8450
SWIDTH 600 0
DWIDTH 6 0
BBX 5 7 0 0
BITMAP
7000
C800
C000
C000
C000
C800
7000
ENDCHAR
STARTCHAR .uni2115
ENCODING 8469
SWIDTH 600 0
DWIDTH 6 0
BBX 5 7 0 0
BITMAP
8800
C800
E800
B800
9800
8800
8800
ENDCHAR
STARTCHAR .uni211A
ENCODING 8474
SWIDTH 600 0
DWIDTH 6 0
BBX 5 9 0 -2
BITMAP
7000
C800
C800
C800
C800
C800
7000
0800
0800
ENDCHAR
STARTCHAR .uni211D
ENCODING 8477
SWIDTH 600 0
DWIDTH 6 0
BBX 5 7 0 0
BITMAP
F000
C800
C800
F000
C800
C800
C800
ENDCHAR
STARTCHAR .uni2124
ENCODING 8484
SWIDTH 600 0
DWIDTH 6 0
BBX 5 7 0 0
BITMAP
F800
1800
3800
7000
E000
C000
F800
ENDCHAR
STARTCHAR .uni2190
ENCODING 8592
SWIDTH 600 0
DWIDTH 6 0
BBX 5 3 0 2
BITMAP
4000
B800
4000
ENDCHAR
STARTCHAR .uni2192
ENCODING 8594
SWIDTH 600 0
DWIDTH 6 0
BBX 5 3 0 2
BITMAP
1000
E800
1000
ENDCHAR
STARTCHAR .uni2194
ENCODING 8596
SWIDTH 600 0
DWIDTH 6 0
BBX 5 3 0 2
BITMAP
5000
A800
5000
ENDCHAR
STARTCHAR .uni2200
ENCODING 8704
SWIDTH 1200 0
DWIDTH 12 0
BBX 7 7 2 0
BITMAP
C600
4400
4400
3800
2800
1000
1000
ENDCHAR
STARTCHAR .uni2202
ENCODING 8706
SWIDTH 600 0
DWIDTH 6 0
BBX 5 7 0 0
BITMAP
6000
1000
0800
7800
8800
8800
7000
ENDCHAR
STARTCHAR .uni2203
ENCODING 8707
SWIDTH 1200 0
DWIDTH 12 0
BBX 5 7 3 0
BITMAP
F800
0800
0800
7800
0800
0800
F800
ENDCHAR
STARTCHAR .uni2205
ENCODING 8709
SWIDTH 1200 0
DWIDTH 12 0
BBX 7 7 2 0
BITMAP
3A00
4400
8A00
9200
A200
4400
B800
ENDCHAR
STARTCHAR .uni2208
ENCODING 8712
SWIDTH 600 0
DWIDTH 6 0
BBX 5 5 0 1
BITMAP
7800
8000
F800
8000
7800
ENDCHAR
STARTCHAR .uni2209
ENCODING 8713
SWIDTH 600 0
DWIDTH 6 0
BBX 5 7 0 0
BITMAP
2000
7800
A000
F800
A000
7800
2000
ENDCHAR
STARTCHAR .uni2218
ENCODING 8728
SWIDTH 600 0
DWIDTH 6 0
BBX 3 3 1 2
BITMAP
4000
A000
4000
ENDCHAR
STARTCHAR .uni221E
ENCODING 8734
SWIDTH 600 0
DWIDTH 6 0
BBX 5 3 0 2
BITMAP
5000
A800
5000
ENDCHAR
STARTCHAR .uni2227
ENCODING 8743
SWIDTH 600 0
DWIDTH 6 0
BBX 5 3 0 2
BITMAP
2000
5000
8800
ENDCHAR
STARTCHAR .uni2228
ENCODING 8744
SWIDTH 600 0
DWIDTH 6 0
BBX 5 3 0 2
BITMAP
8800
5000
2000
ENDCHAR
STARTCHAR .uni2229
ENCODING 8745
SWIDTH 600 0
DWIDTH 6 0
BBX 5 7 0 0
BITMAP
7000
8800
8800
8800
8800
8800
8800
ENDCHAR
STARTCHAR .uni222A
ENCODING 8746
SWIDTH 600 0
DWIDTH 6 0
BBX 5 7 0 0
BITMAP
8800
8800
8800
8800
8800
8800
7000
ENDCHAR
STARTCHAR .uni2260
ENCODING 8800
SWIDTH 600 0
DWIDTH 6 0
BBX 5 5 0 1
BITMAP
2000
F800
2000
F800
2000
ENDCHAR
STARTCHAR .uni2261
ENCODING 8801
SWIDTH 600 0
DWIDTH 6 0
BBX 5 5 0 1
BITMAP
F800
0000
F800
0000
F800
ENDCHAR
STARTCHAR .uni2264
ENCODING 8804
SWIDTH 600 0
DWIDTH 6 0
BBX 3 7 1 -1
BITMAP
2000
4000
8000
4000
2000
0000
E000
ENDCHAR
STARTCHAR .uni2265
ENCODING 8805
SWIDTH 600 0
DWIDTH 6 0
BBX 3 7 1 -1
BITMAP
8000
4000
2000
4000
8000
0000
E000
ENDCHAR
STARTCHAR .uni2282
ENCODING 8834
SWIDTH 600 0
DWIDTH 6 0
BBX 5 7 0 0
BITMAP
3800
4000
8000
8000
8000
4000
3800
ENDCHAR
STARTCHAR .uni2286
ENCODING 8838
SWIDTH 600 0
DWIDTH 6 0
BBX 5 9 0 -2
BITMAP
3800
4000
8000
8000
8000
4000
3800
0000
7800
ENDCHAR
STARTCHAR .uni22C2
ENCODING 8898
SWIDTH 600 0
DWIDTH 6 0
BBX 5 9 0 -2
BITMAP
7000
8800
8800
8800
8800
8800
8800
8800
8800
ENDCHAR
STARTCHAR .uni22C3
ENCODING 8899
SWIDTH 600 0
DWIDTH 6 0
BBX 5 9 0 -2
BITMAP
8800
8800
8800
8800
8800
8800
8800
8800
7000
ENDCHAR
STARTCHAR .uni27E8
ENCODING 10216
SWIDTH 600 0
DWIDTH 6 0
BBX 5 9 0 -2
BITMAP
0800
1000
2000
4000
8000
4000
2000
1000
0800
ENDCHAR
STARTCHAR .uni27E9
ENCODING 10217
SWIDTH 600 0
DWIDTH 6 0
BBX 5 9 0 -2
BITMAP
8000
4000
2000
1000
0800
1000
2000
4000
8000
ENDCHAR
ENDFONT
